<svg width="640" height="520" viewBox="0 0 640 520" fill="none" xmlns="http://www.w3.org/2000/svg">
  <rect x="28" y="32" width="584" height="456" rx="36" fill="#ffffff" stroke="#E7E0D6" stroke-width="2"/>
  <rect x="70" y="80" width="220" height="120" rx="18" fill="#F7F2EA"/>
  <rect x="70" y="230" width="220" height="120" rx="18" fill="#F0F6F3"/>
  <rect x="70" y="380" width="500" height="80" rx="16" fill="#F6F0EB"/>
  <rect x="320" y="80" width="250" height="270" rx="24" fill="#F3F1ED"/>
  <path d="M340 295C380 265 420 260 460 280C500 300 530 290 560 260" stroke="#E96F3A" stroke-width="6" stroke-linecap="round"/>
  <circle cx="420" cy="140" r="36" fill="#1E4258" opacity="0.15"/>
  <circle cx="470" cy="170" r="20" fill="#E96F3A" opacity="0.4"/>
  <rect x="90" y="108" width="140" height="16" rx="8" fill="#1C1A18" opacity="0.18"/>
  <rect x="90" y="132" width="90" height="12" rx="6" fill="#1C1A18" opacity="0.12"/>
  <rect x="90" y="260" width="150" height="16" rx="8" fill="#1C1A18" opacity="0.18"/>
  <rect x="90" y="286" width="110" height="12" rx="6" fill="#1C1A18" opacity="0.12"/>
  <rect x="90" y="406" width="240" height="14" rx="7" fill="#1C1A18" opacity="0.16"/>
  <rect x="90" y="426" width="190" height="12" rx="6" fill="#1C1A18" opacity="0.12"/>
</svg>
