<svg width="560" height="360" viewBox="0 0 560 360" fill="none" xmlns="http://www.w3.org/2000/svg">
  <rect x="24" y="24" width="512" height="312" rx="28" fill="#ffffff" stroke="#E7E0D6" stroke-width="2"/>
  <path d="M70 150C130 90 200 90 260 140C310 180 360 190 420 170C460 156 500 140 520 120" stroke="#2E6B5D" stroke-width="4" stroke-linecap="round"/>
  <circle cx="140" cy="120" r="18" fill="#E96F3A"/>
  <circle cx="270" cy="160" r="12" fill="#1C1A18" opacity="0.2"/>
  <circle cx="380" cy="170" r="14" fill="#E96F3A" opacity="0.6"/>
  <circle cx="480" cy="130" r="10" fill="#1C1A18" opacity="0.2"/>
  <rect x="90" y="220" width="120" height="24" rx="12" fill="#F7F2EA"/>
  <rect x="230" y="220" width="160" height="24" rx="12" fill="#F0F6F3"/>
  <rect x="410" y="220" width="90" height="24" rx="12" fill="#F6F0EB"/>
  <rect x="90" y="258" width="170" height="16" rx="8" fill="#1C1A18" opacity="0.12"/>
  <rect x="280" y="258" width="140" height="16" rx="8" fill="#1C1A18" opacity="0.12"/>
  <rect x="430" y="258" width="70" height="16" rx="8" fill="#1C1A18" opacity="0.12"/>
</svg>
